# xmcd
#
# Track frame offsets:
#	182
#	16522
#	29330
#	39867
#	56147
#	84995
#	95337
#	109932
#	127630
#	139132
#	160822
#
# Disc length: 2306 seconds
#
# Revision: 0
# Processed by: cddbd v1.5.2PL0 Copyright (c) Steve Scherf et al.
# Submitted via: audiograbber 1.83.01
#
DISCID=7909000b
DTITLE=Richie Havens - Mixed Bag
DYEAR=1900
DGENRE=
TTITLE0=High Flyin' Bird
TTITLE1=I Can't Make It Anymore
TTITLE2=Morning, Morning
TTITLE3=Adam
TTITLE4=Follow
TTITLE5=Three Day Eternity
TTITLE6=Sandy
TTITLE7=Handsome Johnny
TTITLE8=San Francisco Bay Blues
TTITLE9=Just Like A Woman
TTITLE10=Eleanor Rigby
EXTD=
EXTT0=
EXTT1=
EXTT2=
EXTT3=
EXTT4=
EXTT5=
EXTT6=
EXTT7=
EXTT8=
EXTT9=
EXTT10=
PLAYORDER=
